<svg width="615" height="503" viewBox="0 0 615 503" fill="none" xmlns="http://www.w3.org/2000/svg">
<path d="M100.998 0L58.9431 83.1066H67.4325V150.877H24.6483L0 199.584L305.41 358.228L406.409 158.644L100.998 0Z" fill="#F2F2F2"/>
<path d="M560.35 54.0619H92.1184V292.065H560.35V54.0619Z" fill="#3F3D56"/>
<path opacity="0.3" d="M503.414 139.582H157.814V140.388H503.414V139.582Z" fill="#6C63FF"/>
<path opacity="0.3" d="M503.812 159.751H158.212V160.558H503.812V159.751Z" fill="#6C63FF"/>
<path opacity="0.3" d="M503.812 200.091H158.212V200.898H503.812V200.091Z" fill="#6C63FF"/>
<path opacity="0.3" d="M503.812 217.84H158.212V218.647H503.812V217.84Z" fill="#6C63FF"/>
<path opacity="0.3" d="M503.812 179.921H158.212V180.728H503.812V179.921Z" fill="#6C63FF"/>
<path d="M451.255 522C533.057 522 599.37 515.859 599.37 508.285C599.37 500.71 533.057 494.569 451.255 494.569C369.454 494.569 303.141 500.71 303.141 508.285C303.141 515.859 369.454 522 451.255 522Z" fill="#3F3D56"/>
<path d="M167.801 218.425L166.702 217.256L218.144 167.58L263.491 200.628L300.162 159.436L316.242 173.284L359.983 146.694L408.569 179.779L484.825 135.834L485.611 137.237L408.499 181.676L359.935 148.605L316.081 175.263L300.309 161.68L263.719 202.781L218.286 169.672L167.801 218.425Z" fill="#6C63FF"/>
<path d="M315.942 480.723C319.685 494.74 332.504 503.421 332.504 503.421C332.504 503.421 339.256 489.376 335.513 475.359C331.77 461.342 318.951 452.661 318.951 452.661C318.951 452.661 312.2 466.706 315.942 480.723Z" fill="#3F3D56"/>
<path d="M321.442 477.711C331.712 487.839 332.966 503.41 332.966 503.41C332.966 503.41 317.57 502.558 307.3 492.429C297.03 482.3 295.776 466.73 295.776 466.73C295.776 466.73 311.172 467.582 321.442 477.711Z" fill="#6C63FF"/>
<path opacity="0.4" d="M609.324 70.1977C624.057 70.1977 636 58.0971 636 43.1702C636 28.2434 624.057 16.1427 609.324 16.1427C594.591 16.1427 582.647 28.2434 582.647 43.1702C582.647 58.0971 594.591 70.1977 609.324 70.1977Z" fill="#6C63FF"/>
<path opacity="0.4" d="M559.952 75.0384C570.287 75.0384 578.665 66.5499 578.665 56.0788C578.665 45.6078 570.287 37.1193 559.952 37.1193C549.617 37.1193 541.239 45.6078 541.239 56.0788C541.239 66.5499 549.617 75.0384 559.952 75.0384Z" fill="#6C63FF"/>
<path opacity="0.4" d="M536.859 413.89C542.356 413.89 546.813 409.375 546.813 403.805C546.813 398.236 542.356 393.72 536.859 393.72C531.362 393.72 526.905 398.236 526.905 403.805C526.905 409.375 531.362 413.89 536.859 413.89Z" fill="#6C63FF"/>
<path opacity="0.4" d="M367.244 463.911C371.422 463.911 374.809 460.48 374.809 456.247C374.809 452.014 371.422 448.582 367.244 448.582C363.066 448.582 359.68 452.014 359.68 456.247C359.68 460.48 363.066 463.911 367.244 463.911Z" fill="#6C63FF"/>
<path opacity="0.4" d="M341.762 364.676C347.26 364.676 351.716 360.161 351.716 354.591C351.716 349.021 347.26 344.506 341.762 344.506C336.265 344.506 331.809 349.021 331.809 354.591C331.809 360.161 336.265 364.676 341.762 364.676Z" fill="#6C63FF"/>
<path d="M484.302 150.473C490.02 150.473 494.655 145.777 494.655 139.985C494.655 134.192 490.02 129.497 484.302 129.497C478.585 129.497 473.95 134.192 473.95 139.985C473.95 145.777 478.585 150.473 484.302 150.473Z" fill="#6C63FF"/>
<path d="M417.04 329.956L408.264 330.944C408.264 330.944 404.364 348.727 408.264 372.437C412.165 396.147 417.04 419.857 417.04 419.857C417.04 419.857 420.94 496.914 422.89 497.902C424.841 498.89 442.392 504.817 443.367 498.89C444.342 492.962 444.342 357.618 444.342 357.618L457.994 422.82C457.994 422.82 459.944 504.817 463.844 504.817C467.744 504.817 480.421 503.829 480.421 496.914C480.421 489.999 483.346 399.11 483.346 399.11C483.346 399.11 482.371 331.932 478.47 329.956C474.57 327.98 417.04 329.956 417.04 329.956Z" fill="#2F2E41"/>
<path d="M424.841 494.938C424.841 494.938 416.065 493.95 414.115 494.938C412.164 495.926 409.239 502.841 414.115 506.793C418.99 510.745 431.666 516.672 435.566 516.672C438.271 516.551 440.924 515.879 443.367 514.696L441.417 497.902L424.841 494.938Z" fill="#2F2E41"/>
<path d="M463.844 499.878L464.819 513.709C464.819 513.709 477.495 515.684 478.47 513.709C479.445 511.733 489.196 506.793 490.171 505.805C491.146 504.817 492.121 493.95 486.271 492.962C480.42 491.974 478.47 494.938 478.47 494.938L463.844 499.878Z" fill="#2F2E41"/>
<path d="M381.937 246.972C381.937 246.972 358.535 269.694 361.46 281.549C364.385 293.404 387.787 327.98 387.787 327.98C387.787 327.98 410.214 339.835 413.14 327.98C416.065 316.126 397.538 319.089 397.538 319.089L382.912 283.524L399.488 259.814L381.937 246.972Z" fill="#FFB8B8"/>
<path d="M486.504 212.403C486.504 212.403 507.822 198.513 507.329 188.971C506.835 179.429 493.984 149.342 493.984 149.342C493.984 149.342 483.93 128.164 479.933 136.819C475.936 145.474 485.186 154.687 485.186 154.687L491.156 184.201L474.931 199.884L486.504 212.403Z" fill="#FFB8B8"/>
<path d="M433.616 192.636C443.31 192.636 451.168 184.675 451.168 174.854C451.168 165.033 443.31 157.071 433.616 157.071C423.923 157.071 416.065 165.033 416.065 174.854C416.065 184.675 423.923 192.636 433.616 192.636Z" fill="#FFB8B8"/>
<path d="M424.841 185.721L427.766 204.491L449.218 200.54C449.218 200.54 448.243 181.769 448.243 179.793C448.243 177.817 424.841 185.721 424.841 185.721Z" fill="#FFB8B8"/>
<path d="M423.866 204.491C423.866 204.491 448.243 198.564 451.168 200.54C454.093 202.515 468.719 204.491 468.719 204.491L485.296 230.177L480.42 262.778C480.42 262.778 479.445 315.138 481.396 324.029C483.346 332.92 494.072 333.908 471.645 335.884C449.218 337.86 445.317 334.896 429.716 338.848C414.115 342.799 401.439 336.872 405.339 332.92C409.239 328.968 416.065 265.742 408.264 259.814C400.463 253.887 397.538 223.262 397.538 223.262C397.538 223.262 423.866 209.431 423.866 204.491Z" fill="#D0CDE1"/>
<path d="M465.794 207.455L468.719 204.491L474.57 198.564C474.57 198.564 493.584 206.961 492.609 209.925C491.634 212.888 485.296 230.177 485.296 230.177L476.52 233.141L465.794 207.455Z" fill="#D0CDE1"/>
<path d="M409.239 225.237L397.538 223.262C397.538 223.262 388.762 233.141 385.837 237.092C382.912 241.044 377.061 250.923 377.061 250.923L397.538 265.742L413.14 248.947L409.239 225.237Z" fill="#D0CDE1"/>
<path d="M439.742 153.31L439.562 151.886C438.369 151.879 437.183 152.067 436.049 152.445C435.933 151.586 436.007 150.711 436.266 149.885C435.114 150.185 434.017 150.668 433.015 151.317L432.306 148.717L422.558 153.585C419.059 155.332 415.37 157.252 413.369 160.645C411.139 164.428 411.527 169.289 413.052 173.416C414.576 177.542 417.109 181.194 419.14 185.091C419.911 186.766 420.837 188.364 421.906 189.862C425.586 194.509 432.748 195.448 437.936 192.643C439.91 191.679 441.483 190.039 442.377 188.012C442.755 186.755 443.052 185.474 443.265 184.177C443.906 181.521 444.651 176.04 446.78 174.36C447.717 173.62 449.574 176.071 450.351 175.161C452.346 172.821 451.927 169.214 450.688 166.388C449.499 163.55 448.109 160.804 446.529 158.169C445.859 157.11 439.72 153.139 439.742 153.31Z" fill="#2F2E41"/>
<path d="M61.0623 92.7878H10.0983V144.422H61.0623V92.7878Z" fill="#3F3D56"/>
</svg>
