<svg width="687" height="453" viewBox="0 0 687 453" fill="none" xmlns="http://www.w3.org/2000/svg">
<g clip-path="url(#clip0)">
<path d="M660.405 368.582C657.392 368.582 654.501 369.97 651.807 372.492C644.478 347.463 633.133 331.379 620.388 331.379C607.643 331.379 596.298 347.463 588.969 372.492C586.275 369.97 583.384 368.582 580.371 368.582C565.891 368.582 554.153 400.23 554.153 439.269H686.623C686.623 400.23 674.885 368.582 660.405 368.582Z" fill="#D0CDE1"/>
<path d="M268.513 328.583C265.397 328.644 262.384 329.649 259.915 331.45C252.586 313.096 241.241 301.301 228.496 301.301C215.751 301.301 204.406 313.096 197.077 331.45C194.608 329.649 191.595 328.644 188.479 328.583C173.999 328.583 162.261 351.791 162.261 380.42H294.731C294.731 351.791 282.993 328.583 268.513 328.583Z" fill="#D0CDE1"/>
<path d="M698 453H1.16425C1.79211 399.343 157.548 355.9 349.582 355.9C541.616 355.9 697.372 399.343 698 453Z" fill="#3F3D56"/>
<path d="M89.126 242.03C138.349 242.03 178.252 204.214 178.252 157.565C178.252 110.915 138.349 73.0987 89.126 73.0987C39.9031 73.0987 0 110.915 0 157.565C0 204.214 39.9031 242.03 89.126 242.03Z" fill="#D0CDE1"/>
<path d="M92.001 399.382H86.9697V167.394C86.9697 160.866 87.8146 154.362 89.4854 148.028C91.1562 154.362 92.001 160.866 92.001 167.394L92.001 399.382Z" fill="#3F3D56"/>
<path d="M89.768 229.398L87.1178 225.345L124.345 203.483C126.927 201.966 129.916 201.185 132.953 201.232C131.646 203.831 129.578 206.019 126.995 207.536L89.768 229.398Z" fill="#3F3D56"/>
<path d="M88.0142 207.365L90.6644 203.312L65.046 188.267C63.0143 187.074 60.5839 186.648 58.2363 187.073C58.8796 189.254 60.3642 191.127 62.3958 192.32L88.0142 207.365Z" fill="#3F3D56"/>
<path d="M88.0142 300.005L90.6644 295.952L65.046 280.907C63.0143 279.714 60.5839 279.288 58.2363 279.713C58.8796 281.894 60.3642 283.767 62.3958 284.96L88.0142 300.005Z" fill="#3F3D56"/>
<path d="M561.742 239.837C608.992 239.837 647.296 203.536 647.296 158.756C647.296 113.977 608.992 77.6758 561.742 77.6758C514.492 77.6758 476.188 113.977 476.188 158.756C476.188 203.536 514.492 239.837 561.742 239.837Z" fill="#D0CDE1"/>
<path d="M558.982 390.882H563.812V168.192C563.812 161.925 563.001 155.682 561.397 149.602C559.793 155.682 558.982 161.925 558.982 168.192V390.882Z" fill="#3F3D56"/>
<path d="M561.126 227.711L563.669 223.82L527.935 202.834C525.456 201.378 522.587 200.628 519.671 200.674C520.926 203.168 522.912 205.269 525.391 206.725L561.126 227.711Z" fill="#3F3D56"/>
<path d="M562.809 206.561L560.265 202.67L584.857 188.228C586.807 187.083 589.14 186.674 591.393 187.082C590.776 189.176 589.351 190.974 587.401 192.119L562.809 206.561Z" fill="#3F3D56"/>
<path d="M562.809 295.488L560.265 291.597L584.857 277.155C586.807 276.01 589.14 275.601 591.393 276.009C590.776 278.103 589.351 279.901 587.401 281.046L562.809 295.488Z" fill="#3F3D56"/>
<path d="M102.307 444.86C101.536 444.862 100.773 445.015 100.068 445.311C98.1593 442.428 95.2049 440.576 91.8858 440.576C88.5667 440.576 85.6123 442.428 83.7038 445.311C82.9984 445.015 82.2359 444.862 81.4647 444.86C77.6939 444.86 74.637 448.505 74.637 453H109.135C109.135 448.505 106.078 444.86 102.307 444.86Z" fill="#D0CDE1"/>
<path d="M316.191 439.291C315.378 439.308 314.592 439.574 313.952 440.049C312.044 435.195 309.089 432.076 305.77 432.076C302.451 432.076 299.497 435.195 297.588 440.049C296.948 439.574 296.162 439.308 295.349 439.291C291.578 439.291 288.522 445.429 288.522 453H323.019C323.019 445.429 319.962 439.291 316.191 439.291Z" fill="#D0CDE1"/>
<path d="M613.56 439.291C612.747 439.308 611.961 439.574 611.321 440.049C609.412 435.195 606.458 432.076 603.139 432.076C599.82 432.076 596.865 435.195 594.957 440.049C594.317 439.574 593.531 439.308 592.718 439.291C588.947 439.291 585.89 445.429 585.89 453H620.388C620.388 445.429 617.331 439.291 613.56 439.291Z" fill="#6C63FF"/>
<path d="M428.709 315.213L427.613 320.146L426.243 325.08L421.86 383.762L436.929 384.801L443.778 320.666L442.682 317.29L428.709 315.213Z" fill="#2F2E41"/>
<path d="M415.832 375.713L409.53 384.801C409.53 384.801 391.995 398.303 404.598 399.082C417.202 399.861 421.859 391.033 421.859 391.033C421.859 391.033 426.243 389.735 426.791 388.436C427.339 387.138 425.695 375.713 425.695 375.713H415.832Z" fill="#2F2E41"/>
<path d="M422.955 382.724C422.955 382.724 416.654 397.784 417.476 400.381C418.298 402.977 419.668 402.977 419.394 405.314C419.12 407.651 418.298 413.104 428.709 413.364C439.12 413.623 434.189 400.381 434.189 400.381L432.819 382.724H422.955Z" fill="#2F2E41"/>
<path d="M403.777 271.331C403.777 271.331 399.941 277.563 400.489 281.457C401.037 285.352 408.982 327.157 408.982 327.157L415.284 378.05L429.257 377.012L423.777 330.013L425.147 292.623L427.613 320.146L443.778 320.666L453.368 281.457C453.368 281.457 446.244 270.552 444.874 269.773C443.504 268.994 403.777 271.331 403.777 271.331Z" fill="#2F2E41"/>
<path d="M422.818 192.525C429.325 192.525 434.6 187.526 434.6 181.359C434.6 175.193 429.325 170.194 422.818 170.194C416.312 170.194 411.037 175.193 411.037 181.359C411.037 187.526 416.312 192.525 422.818 192.525Z" fill="#FFB8B8"/>
<path d="M419.394 188.5L421.037 203.3L439.12 200.704L429.257 183.307L419.394 188.5Z" fill="#FFB8B8"/>
<path d="M437.75 196.29C437.75 196.29 428.435 202.781 419.394 199.146L405.694 232.122V273.408C405.694 273.408 426.243 279.121 437.75 272.369C437.75 272.369 445.97 270.811 447.34 271.071C448.71 271.331 442.408 200.704 442.408 200.704L437.75 196.29Z" fill="#D0CDE1"/>
<path d="M429.257 197.848L435.559 206.416C436.784 208.558 437.172 211.041 436.655 213.427C435.833 217.582 435.011 271.85 442.682 273.927C450.354 276.005 455.285 275.745 455.285 275.745C455.285 275.745 448.436 244.586 450.902 239.133L458.573 206.416L438.298 195.511C438.298 195.511 437.031 190.577 434.925 193.304C433.36 195.149 431.436 196.691 429.257 197.848Z" fill="#575A89"/>
<path d="M410.9 246.144L420.259 196.29L410.9 200.964C410.9 200.964 400.215 205.118 398.023 210.052C395.831 214.985 387.064 238.614 387.064 238.614C387.064 238.614 389.255 252.895 397.475 246.923C405.694 240.951 403.776 238.095 403.776 238.095C403.776 238.095 396.653 265.618 397.749 266.397C398.845 267.176 399.393 274.447 399.393 274.447L407.886 272.889L410.9 246.144Z" fill="#575A89"/>
<path d="M400.215 218.361L403.776 213.427C403.776 213.427 411.832 198.107 417.668 203.3C423.503 208.494 406.79 220.438 406.79 220.438L400.215 218.361Z" fill="#FFB8B8"/>
<path d="M448.436 272.11L446.244 274.775L451.723 281.457L454.189 276.783L448.436 272.11Z" fill="#FFB8B8"/>
<path d="M418.095 172.11C416.887 172.122 415.829 172.831 414.836 173.484C413.844 174.136 412.718 174.786 411.518 174.658C410.957 174.563 410.429 174.343 409.976 174.015C409.524 173.688 409.16 173.263 408.916 172.775C408.438 171.797 408.13 170.752 408.003 169.68L409.37 170.137L408.262 168.944L420.031 165.556C423.592 164.53 427.617 163.542 430.879 165.24C432.565 166.225 433.93 167.634 434.82 169.311C436.675 172.524 437.62 176.137 437.566 179.798C437.511 183.46 436.457 187.046 434.507 190.208C432.702 190.062 431.525 188.27 431.233 186.576C430.94 184.882 431.225 183.127 430.864 181.445C430.502 179.762 429.148 178.039 427.337 178.092L426.384 180.019C426.994 178.786 423.371 175.775 422.506 175.215C421.748 174.805 421.04 174.316 420.395 173.758C419.647 173.016 419.459 172.097 418.095 172.11Z" fill="#2F2E41"/>
<path d="M401.311 215.504L407.886 219.399L401.311 245.365C401.311 245.365 390.899 257.569 387.064 245.365C383.853 235.15 395.999 221.114 400.043 216.811C400.83 215.973 401.311 215.504 401.311 215.504Z" fill="#575A89"/>
<path d="M452.272 205.897H458.573C458.573 205.897 464.053 216.024 464.601 221.477C465.149 226.929 465.149 248.481 465.149 248.481L454.463 278.601L446.244 272.889L453.094 254.972C453.094 254.972 452.272 251.077 453.094 249.26C453.915 247.442 450.628 238.095 450.08 237.575C449.532 237.056 452.272 205.897 452.272 205.897Z" fill="#575A89"/>
<path d="M303.398 85.1871L377.537 85.1871V78.9261L303.398 78.9261V85.1871Z" fill="#3F3D56"/>
<path d="M303.398 108.252L377.537 108.252V101.991L303.398 101.991V108.252Z" fill="#3F3D56"/>
<path d="M303.398 128.914H377.537V122.653L303.398 122.653V128.914Z" fill="#3F3D56"/>
<path d="M183.034 142.371L219.399 107.256H260.507V105.949H218.822L218.62 106.143L182.052 141.452L183.034 142.371Z" fill="#3F3D56"/>
<path d="M280.075 91.6669C284.555 91.6669 288.188 88.2247 288.188 83.9787C288.188 79.7326 284.555 76.2904 280.075 76.2904C275.595 76.2904 271.963 79.7326 271.963 83.9787C271.963 88.2247 275.595 91.6669 280.075 91.6669Z" fill="#6C63FF"/>
<path d="M280.075 114.732C284.555 114.732 288.188 111.289 288.188 107.043C288.188 102.797 284.555 99.3551 280.075 99.3551C275.595 99.3551 271.963 102.797 271.963 107.043C271.963 111.289 275.595 114.732 280.075 114.732Z" fill="#6C63FF"/>
<path d="M280.075 135.394C284.555 135.394 288.188 131.951 288.188 127.705C288.188 123.459 284.555 120.017 280.075 120.017C275.595 120.017 271.963 123.459 271.963 127.705C271.963 131.951 275.595 135.394 280.075 135.394Z" fill="#6C63FF"/>
<path d="M275.512 82.0566C275.512 80.441 276.017 78.8616 276.965 77.5183C277.912 76.175 279.258 75.1279 280.833 74.5097C282.408 73.8914 284.141 73.7296 285.813 74.0448C287.485 74.36 289.021 75.138 290.226 76.2804C291.432 77.4228 292.253 78.8784 292.585 80.463C292.918 82.0475 292.747 83.69 292.095 85.1826C291.442 86.6753 290.337 87.9511 288.92 88.8487C287.503 89.7463 285.836 90.2253 284.131 90.2253C281.846 90.2229 279.655 89.3615 278.039 87.8301C276.423 86.2987 275.514 84.2223 275.512 82.0566ZM276.526 82.0566C276.526 83.4822 276.972 84.8757 277.808 86.061C278.643 87.2463 279.831 88.1701 281.221 88.7157C282.611 89.2612 284.14 89.4039 285.615 89.1258C287.09 88.8477 288.446 88.1613 289.509 87.1532C290.573 86.1452 291.297 84.8609 291.591 83.4628C291.884 82.0646 291.733 80.6154 291.158 79.2983C290.582 77.9813 289.607 76.8556 288.357 76.0636C287.106 75.2716 285.636 74.8489 284.131 74.8489C282.115 74.8511 280.182 75.6111 278.756 76.9624C277.33 78.3136 276.528 80.1457 276.526 82.0566Z" fill="#3F3D56"/>
<path d="M275.512 105.121C275.512 103.506 276.017 101.926 276.965 100.583C277.912 99.2396 279.258 98.1926 280.833 97.5743C282.408 96.9561 284.141 96.7943 285.813 97.1095C287.485 97.4247 289.021 98.2027 290.226 99.3451C291.432 100.488 292.253 101.943 292.585 103.528C292.918 105.112 292.747 106.755 292.095 108.247C291.442 109.74 290.337 111.016 288.92 111.913C287.503 112.811 285.836 113.29 284.131 113.29C281.846 113.288 279.655 112.426 278.039 110.895C276.423 109.363 275.514 107.287 275.512 105.121ZM276.526 105.121C276.526 106.547 276.972 107.94 277.808 109.126C278.643 110.311 279.831 111.235 281.221 111.78C282.611 112.326 284.14 112.469 285.615 112.19C287.09 111.912 288.446 111.226 289.509 110.218C290.573 109.21 291.297 107.926 291.591 106.527C291.884 105.129 291.733 103.68 291.158 102.363C290.582 101.046 289.607 99.9203 288.357 99.1283C287.106 98.3363 285.636 97.9136 284.131 97.9136C282.115 97.9157 280.182 98.6758 278.756 100.027C277.33 101.378 276.528 103.21 276.526 105.121Z" fill="#3F3D56"/>
<path d="M275.512 125.783C275.512 124.168 276.017 122.588 276.965 121.245C277.912 119.902 279.258 118.855 280.833 118.236C282.408 117.618 284.141 117.456 285.813 117.772C287.485 118.087 289.021 118.865 290.226 120.007C291.432 121.15 292.253 122.605 292.585 124.19C292.918 125.774 292.747 127.417 292.095 128.909C291.442 130.402 290.337 131.678 288.92 132.575C287.503 133.473 285.836 133.952 284.131 133.952C281.846 133.95 279.655 133.088 278.039 131.557C276.423 130.025 275.514 127.949 275.512 125.783ZM276.526 125.783C276.526 127.209 276.972 128.602 277.808 129.788C278.643 130.973 279.831 131.897 281.221 132.442C282.611 132.988 284.14 133.131 285.615 132.853C287.09 132.574 288.446 131.888 289.509 130.88C290.573 129.872 291.297 128.588 291.591 127.19C291.884 125.791 291.733 124.342 291.158 123.025C290.582 121.708 289.607 120.582 288.357 119.79C287.106 118.998 285.636 118.576 284.131 118.576C282.115 118.578 280.182 119.338 278.756 120.689C277.33 122.04 276.528 123.872 276.526 125.783Z" fill="#3F3D56"/>
<path d="M444.148 5.03822H370.009V11.2992H444.148V5.03822Z" fill="#3F3D56"/>
<path d="M444.148 28.1029H370.009V34.3639H444.148V28.1029Z" fill="#3F3D56"/>
<path d="M444.148 48.765H370.009V55.026H444.148V48.765Z" fill="#3F3D56"/>
<path d="M557.613 75.0223L528.148 33.3685H487.039V32.0608H528.724L528.927 32.255L558.595 74.103L557.613 75.0223Z" fill="#3F3D56"/>
<path d="M467.471 17.779C471.952 17.779 475.584 14.3369 475.584 10.0908C475.584 5.8447 471.952 2.40257 467.471 2.40257C462.991 2.40257 459.359 5.8447 459.359 10.0908C459.359 14.3369 462.991 17.779 467.471 17.779Z" fill="#6C63FF"/>
<path d="M467.471 40.8437C471.952 40.8437 475.584 37.4015 475.584 33.1555C475.584 28.9094 471.952 25.4672 467.471 25.4672C462.991 25.4672 459.359 28.9094 459.359 33.1555C459.359 37.4015 462.991 40.8437 467.471 40.8437Z" fill="#6C63FF"/>
<path d="M467.471 61.5058C471.952 61.5058 475.584 58.0636 475.584 53.8175C475.584 49.5715 471.952 46.1293 467.471 46.1293C462.991 46.1293 459.359 49.5715 459.359 53.8175C459.359 58.0636 462.991 61.5058 467.471 61.5058Z" fill="#6C63FF"/>
<path d="M463.415 16.3375C461.71 16.3375 460.044 15.8584 458.626 14.9608C457.209 14.0632 456.104 12.7874 455.452 11.2948C454.799 9.80213 454.629 8.15967 454.961 6.57509C455.294 4.99051 456.115 3.53498 457.32 2.39257C458.526 1.25015 460.061 0.47215 461.733 0.156958C463.405 -0.158235 465.139 0.0035346 466.714 0.621807C468.289 1.24008 469.635 2.28709 470.582 3.63043C471.529 4.97377 472.034 6.55311 472.034 8.16873C472.032 10.3345 471.123 12.4108 469.507 13.9422C467.891 15.4736 465.7 16.3351 463.415 16.3375ZM463.415 0.961021C461.911 0.961021 460.44 1.38375 459.19 2.17574C457.939 2.96774 456.964 4.09342 456.389 5.41046C455.813 6.7275 455.662 8.17673 455.956 9.57489C456.249 10.973 456.974 12.2573 458.037 13.2654C459.101 14.2734 460.456 14.9598 461.931 15.2379C463.407 15.5161 464.936 15.3733 466.325 14.8278C467.715 14.2823 468.903 13.3584 469.739 12.1731C470.574 10.9878 471.02 9.59428 471.02 8.16873C471.018 6.25779 470.216 4.42574 468.79 3.0745C467.364 1.72326 465.431 0.963186 463.415 0.961021Z" fill="#3F3D56"/>
<path d="M463.415 39.4021C461.71 39.4021 460.044 38.923 458.626 38.0255C457.209 37.1279 456.104 35.8521 455.452 34.3594C454.799 32.8668 454.629 31.2243 454.961 29.6397C455.294 28.0552 456.115 26.5996 457.32 25.4572C458.526 24.3148 460.061 23.5368 461.733 23.2216C463.405 22.9064 465.139 23.0682 466.714 23.6865C468.289 24.3047 469.635 25.3517 470.582 26.6951C471.529 28.0384 472.034 29.6178 472.034 31.2334C472.032 33.3991 471.123 35.4755 469.507 37.0069C467.891 38.5383 465.7 39.3997 463.415 39.4021ZM463.415 24.0257C461.911 24.0257 460.44 24.4484 459.19 25.2404C457.939 26.0324 456.964 27.1581 456.389 28.4751C455.813 29.7922 455.662 31.2414 455.956 32.6396C456.249 34.0377 456.974 35.322 458.037 36.33C459.101 37.338 460.456 38.0245 461.931 38.3026C463.407 38.5807 464.936 38.438 466.325 37.8925C467.715 37.3469 468.903 36.4231 469.739 35.2378C470.574 34.0525 471.02 32.659 471.02 31.2334C471.018 29.3225 470.216 27.4904 468.79 26.1392C467.364 24.7879 465.431 24.0279 463.415 24.0257Z" fill="#3F3D56"/>
<path d="M463.415 60.0642C461.71 60.0642 460.044 59.5851 458.626 58.6875C457.209 57.79 456.104 56.5142 455.452 55.0215C454.799 53.5289 454.629 51.8864 454.961 50.3019C455.294 48.7173 456.115 47.2617 457.32 46.1193C458.526 44.9769 460.061 44.1989 461.733 43.8837C463.405 43.5685 465.139 43.7303 466.714 44.3486C468.289 44.9668 469.635 46.0138 470.582 47.3572C471.529 48.7005 472.034 50.2799 472.034 51.8955C472.032 54.0612 471.123 56.1376 469.507 57.669C467.891 59.2004 465.7 60.0618 463.415 60.0642ZM463.415 44.6878C461.911 44.6878 460.44 45.1105 459.19 45.9025C457.939 46.6945 456.964 47.8202 456.389 49.1372C455.813 50.4543 455.662 51.9035 455.956 53.3017C456.249 54.6998 456.974 55.9841 458.037 56.9921C459.101 58.0001 460.456 58.6866 461.931 58.9647C463.407 59.2428 464.936 59.1001 466.325 58.5546C467.715 58.009 468.903 57.0852 469.739 55.8999C470.574 54.7146 471.02 53.321 471.02 51.8955C471.018 49.9846 470.216 48.1525 468.79 46.8013C467.364 45.45 465.431 44.69 463.415 44.6878Z" fill="#3F3D56"/>
<path d="M313.529 250.998H365.309V246.625H313.529V250.998Z" fill="#3F3D56"/>
<path d="M313.529 267.107H365.309V262.734H313.529V267.107Z" fill="#3F3D56"/>
<path d="M313.529 281.537H365.309V277.164H313.529V281.537Z" fill="#3F3D56"/>
<path d="M229.464 290.936L254.861 266.412H283.573V265.498H254.459L254.318 265.633L228.778 290.294L229.464 290.936Z" fill="#3F3D56"/>
<path d="M297.239 255.523C300.368 255.523 302.905 253.119 302.905 250.154C302.905 247.188 300.368 244.784 297.239 244.784C294.11 244.784 291.573 247.188 291.573 250.154C291.573 253.119 294.11 255.523 297.239 255.523Z" fill="#6C63FF"/>
<path d="M297.239 271.632C300.368 271.632 302.905 269.228 302.905 266.263C302.905 263.297 300.368 260.893 297.239 260.893C294.11 260.893 291.573 263.297 291.573 266.263C291.573 269.228 294.11 271.632 297.239 271.632Z" fill="#6C63FF"/>
<path d="M297.239 286.063C300.368 286.063 302.905 283.659 302.905 280.693C302.905 277.728 300.368 275.324 297.239 275.324C294.11 275.324 291.573 277.728 291.573 280.693C291.573 283.659 294.11 286.063 297.239 286.063Z" fill="#6C63FF"/>
<path d="M294.052 248.811C294.052 247.683 294.405 246.58 295.067 245.642C295.728 244.703 296.668 243.972 297.768 243.54C298.868 243.109 300.079 242.996 301.247 243.216C302.414 243.436 303.487 243.979 304.329 244.777C305.171 245.575 305.744 246.592 305.977 247.698C306.209 248.805 306.09 249.952 305.634 250.995C305.178 252.037 304.407 252.928 303.417 253.555C302.427 254.182 301.263 254.517 300.072 254.517C298.476 254.515 296.946 253.913 295.817 252.844C294.689 251.774 294.054 250.324 294.052 248.811ZM294.761 248.811C294.761 249.807 295.072 250.78 295.656 251.608C296.239 252.436 297.069 253.081 298.04 253.462C299.01 253.843 300.078 253.943 301.108 253.749C302.139 253.554 303.085 253.075 303.828 252.371C304.571 251.667 305.077 250.77 305.282 249.793C305.487 248.817 305.382 247.805 304.98 246.885C304.578 245.965 303.897 245.179 303.023 244.626C302.15 244.073 301.123 243.777 300.072 243.777C298.664 243.779 297.314 244.31 296.318 245.253C295.322 246.197 294.762 247.477 294.761 248.811Z" fill="#3F3D56"/>
<path d="M294.052 264.92C294.052 263.792 294.405 262.689 295.067 261.75C295.728 260.812 296.669 260.081 297.769 259.649C298.869 259.217 300.079 259.104 301.247 259.325C302.414 259.545 303.487 260.088 304.329 260.886C305.171 261.684 305.744 262.7 305.977 263.807C306.209 264.914 306.09 266.061 305.634 267.103C305.178 268.146 304.407 269.037 303.417 269.664C302.427 270.291 301.263 270.625 300.072 270.625C298.476 270.624 296.946 270.022 295.817 268.952C294.689 267.883 294.054 266.433 294.052 264.92ZM294.761 264.92C294.761 265.916 295.072 266.889 295.656 267.717C296.239 268.545 297.069 269.19 298.04 269.571C299.01 269.952 300.078 270.052 301.108 269.857C302.139 269.663 303.085 269.184 303.828 268.48C304.571 267.776 305.077 266.879 305.282 265.902C305.487 264.926 305.382 263.914 304.98 262.994C304.578 262.074 303.897 261.288 303.023 260.735C302.15 260.181 301.123 259.886 300.072 259.886C298.664 259.888 297.314 260.419 296.318 261.362C295.322 262.306 294.762 263.586 294.761 264.92Z" fill="#3F3D56"/>
<path d="M294.052 279.351C294.052 278.223 294.405 277.12 295.067 276.181C295.728 275.243 296.669 274.512 297.769 274.08C298.869 273.648 300.079 273.535 301.247 273.755C302.414 273.976 303.487 274.519 304.329 275.317C305.171 276.115 305.744 277.131 305.977 278.238C306.209 279.345 306.09 280.492 305.634 281.534C305.178 282.577 304.407 283.468 303.417 284.095C302.427 284.722 301.263 285.056 300.072 285.056C298.476 285.054 296.946 284.453 295.817 283.383C294.689 282.314 294.054 280.864 294.052 279.351ZM294.761 279.351C294.761 280.347 295.072 281.32 295.656 282.148C296.239 282.976 297.069 283.621 298.04 284.002C299.01 284.383 300.078 284.482 301.108 284.288C302.139 284.094 303.085 283.615 303.828 282.911C304.571 282.207 305.077 281.31 305.282 280.333C305.487 279.357 305.382 278.344 304.98 277.425C304.578 276.505 303.897 275.718 303.023 275.165C302.15 274.612 301.123 274.317 300.072 274.317C298.664 274.318 297.314 274.849 296.318 275.793C295.322 276.737 294.762 278.016 294.761 279.351Z" fill="#3F3D56"/>
</g>
<defs>
<clipPath id="clip0">
<rect width="698" height="453" fill="white"/>
</clipPath>
</defs>
</svg>
